<svg width="2000" height="473" viewBox="0 0 2000 473" fill="none" xmlns="http://www.w3.org/2000/svg">
<path d="M1290.47 11.1206L1205.55 428.586L1134.16 11.1206H995.729L772.697 397.313L728.513 289.908C775.514 275.895 812.075 247.484 833.1 212.43L851.971 119.551C843.934 66.6174 783.344 11.1634 712.252 11.1634H501.401L461.857 205.744H310.766L170.323 308.449H332.143L301.818 456.825L429.832 363.22L409.905 461.311H516.854L550.121 298.196H619.079L682.569 461.311H852.282L896.176 382.872H1089.09L1100.83 461.311H1533.45L1554.48 359.289H1326.95L1341.78 283.414H1560.15L1580.54 183.934H1362.19L1376.42 113.164H1734.78L1663.66 461.354H1770.63L1841.73 113.164H1979.6L2000 11.1634L1290.47 11.1206ZM674.117 205.701H568.95L588.65 109.297H680.145C709.145 109.297 732.718 125.874 738.891 143.732L733.008 177.91C721.802 195.17 702.579 205.701 674.117 205.701ZM950.592 284.012L1047.04 111.22L1073.64 284.012H950.592Z" fill="#0E0C66"/>
<path d="M113.232 289.418L138.695 166.348C156.71 133.245 202.123 101.954 257.481 101.954C313.233 101.954 347.621 129.192 367.737 158.328L456.047 94.0626C410.529 30.6503 348.494 0 269.276 0C167.923 0 78.3446 55.4564 36.6967 130.109L0 310.577C12.4819 410.036 105.701 472.467 212.65 472.467C222.897 472.183 233.094 470.904 243.106 468.649C247.766 443.459 257.668 394.658 263.763 365.863C250.875 368.915 237.693 370.475 224.466 370.513C157.958 370.321 118.765 328.217 113.232 289.418Z" fill="#0E0C66"/>
</svg>
