<svg width="124" height="23" viewBox="0 0 124 23" fill="none" xmlns="http://www.w3.org/2000/svg">
<path d="M91.355 22.05L103.812 1.6333H109.443L113.294 22.05H108.218L107.401 17.1208H99.5822L96.7231 22.05H91.355ZM101.887 13.125H106.759L105.68 6.59163L101.887 13.125Z" fill="#525986"/>
<path d="M114.178 22.05L118.525 1.6333H123.426L119.079 22.05H114.178Z" fill="#525986"/>
<path d="M6.29656 8.68238L5.14075 14.2694C5.39193 16.0307 7.17097 17.9421 10.1899 17.9508C10.7903 17.9491 11.3886 17.8783 11.9736 17.7397C11.697 19.0469 11.2475 21.2623 11.036 22.4059C10.5815 22.5082 10.1186 22.5663 9.65351 22.5792C4.79891 22.5792 0.567549 19.745 0.000976562 15.2299L1.6667 7.03727C3.55717 3.64828 7.62329 1.13074 12.2239 1.13074C15.8197 1.13074 18.6356 2.52216 20.7017 5.40087L16.6932 8.31831C15.7801 6.99564 14.2192 5.75913 11.6885 5.75913C9.1757 5.75913 7.11432 7.17961 6.29656 8.68238Z" fill="#161160"/>
<path fill-rule="evenodd" clip-rule="evenodd" d="M54.7246 20.5867L58.5797 1.63511L90.7865 1.63705L89.8603 6.26754H83.602L80.375 22.0742H75.5195L78.7474 6.26754H62.4809L61.8349 9.48028H71.7462L70.821 13.9963H60.9087L60.2355 17.4408H70.5633L69.609 22.0723H49.9716L49.4385 18.5114H40.6818L38.6894 22.0723H30.9859L28.104 14.6674H24.9738L23.4638 22.0723H18.6092L19.5137 17.6193L13.7029 21.8687L15.0795 15.1329H7.73414L14.1091 10.4704H20.9674L22.7623 1.63705H32.3333C35.5602 1.63705 38.3105 4.15449 38.6753 6.55749L37.8187 10.7739C36.8644 12.3652 35.2048 13.655 33.0714 14.2911L35.0769 19.167L45.2007 1.63511H51.4845L54.7246 20.5867ZM25.8285 10.4684H30.6022C31.8942 10.4684 32.7667 9.99036 33.2754 9.20681L33.5424 7.65523C33.2622 6.84453 32.1922 6.09202 30.8758 6.09202H26.7227L25.8285 10.4684ZM47.5298 6.17929L43.1519 14.0235H48.7371L47.5298 6.17929Z" fill="#161160"/>
</svg>
