<svg width="101" height="101" viewBox="0 0 101 101" fill="none" xmlns="http://www.w3.org/2000/svg">
<rect x="0.500977" y="0.703125" width="100" height="100" rx="20" fill="url(#paint0_linear_1_1531)"/>
<path fill-rule="evenodd" clip-rule="evenodd" d="M24.1307 36.656C29.7764 26.7044 41.9217 19.3047 55.663 19.3047C66.4062 19.3047 74.8188 23.396 80.9791 31.8609L69.0053 40.4424C66.272 36.5469 61.5585 32.9147 54.0521 32.9147C46.5456 32.9147 40.3891 37.0888 37.9466 41.5076L34.4936 57.9368C35.2468 63.1233 40.5606 68.7428 49.581 68.7428C51.3735 68.7375 53.1597 68.5292 54.906 68.1217C54.0782 71.9684 52.7358 78.4798 52.1056 81.8447C50.7568 82.1408 49.3835 82.3084 48.0037 82.3453C33.4867 82.3453 20.8418 74.0197 19.1562 60.7446L24.1307 36.656ZM64.0717 60.4092H42.0371L61.1593 46.7239H81.7508L77.373 67.7035L59.9362 80.1844L64.0717 60.4092Z" fill="#E7E7FF"/>
<defs>
<linearGradient id="paint0_linear_1_1531" x1="45.2275" y1="71.0156" x2="100.501" y2="-12.1875" gradientUnits="userSpaceOnUse">
<stop stop-color="#0E0C66"/>
<stop offset="1" stop-color="#3431C1"/>
</linearGradient>
</defs>
</svg>
