<svg width="316" height="28" viewBox="0 0 316 28" fill="none" xmlns="http://www.w3.org/2000/svg">
<path d="M91.355 22.05L103.812 1.63333H109.443L113.294 22.05H108.218L107.401 17.1208H99.5822L96.7231 22.05H91.355ZM101.887 13.125H106.759L105.68 6.59167L101.887 13.125Z" fill="#525986"/>
<path d="M114.178 22.05L118.525 1.63333H123.426L119.079 22.05H114.178Z" fill="#525986"/>
<path d="M136.074 22.3417C134.168 22.3417 132.388 21.9917 130.735 21.2917C129.082 20.5917 127.652 19.5903 126.447 18.2875L129.656 14.8458C130.764 15.9931 131.863 16.8389 132.953 17.3833C134.061 17.9083 135.238 18.1708 136.483 18.1708C137.163 18.1708 137.747 18.0931 138.233 17.9375C138.719 17.7625 139.089 17.5194 139.342 17.2083C139.614 16.8778 139.75 16.4986 139.75 16.0708C139.75 15.6236 139.556 15.2542 139.167 14.9625C138.797 14.6708 138.165 14.4083 137.27 14.175L133.011 13.0667C131.591 12.6778 130.512 12.0458 129.772 11.1708C129.033 10.2958 128.664 9.20694 128.664 7.90417C128.664 6.54306 128.985 5.37639 129.627 4.40417C130.288 3.43194 131.221 2.68333 132.427 2.15833C133.633 1.61389 135.063 1.34167 136.716 1.34167C138.428 1.34167 140.071 1.65278 141.647 2.275C143.241 2.89722 144.603 3.7625 145.731 4.87083L142.638 8.37083C141.647 7.39861 140.635 6.67917 139.604 6.2125C138.573 5.74583 137.465 5.5125 136.278 5.5125C135.384 5.5125 134.674 5.67778 134.149 6.00833C133.624 6.31944 133.361 6.75694 133.361 7.32083C133.361 7.74861 133.526 8.09861 133.857 8.37083C134.207 8.62361 134.771 8.85694 135.549 9.07083L139.546 10.0333C141.219 10.4222 142.483 11.0736 143.339 11.9875C144.214 12.9014 144.651 14.0292 144.651 15.3708C144.651 16.7708 144.292 17.9958 143.572 19.0458C142.872 20.0958 141.88 20.9125 140.596 21.4958C139.313 22.0597 137.805 22.3417 136.074 22.3417Z" fill="#525986"/>
<path d="M143.247 28L147.798 6.62083H152.379L152.233 7.29167C153.283 6.70833 154.411 6.41667 155.617 6.41667C156.92 6.41667 158.087 6.7375 159.118 7.37917C160.149 8.00139 160.966 8.85694 161.569 9.94583C162.191 11.0153 162.502 12.2306 162.502 13.5917C162.502 14.7972 162.278 15.925 161.831 16.975C161.384 18.025 160.761 18.9486 159.964 19.7458C159.186 20.5236 158.272 21.1361 157.222 21.5833C156.191 22.0306 155.072 22.2542 153.867 22.2542C153.011 22.2542 152.204 22.1278 151.445 21.875C150.706 21.6028 150.045 21.2236 149.461 20.7375L147.886 28H143.247ZM153.691 18.2292C154.508 18.2292 155.238 18.0444 155.88 17.675C156.521 17.2861 157.027 16.7708 157.397 16.1292C157.786 15.4875 157.98 14.7778 157.98 14C157.98 13.3194 157.825 12.7069 157.513 12.1625C157.202 11.6181 156.764 11.1903 156.2 10.8792C155.656 10.5681 155.033 10.4125 154.333 10.4125C153.789 10.4125 153.273 10.5 152.787 10.675C152.301 10.8306 151.853 11.0736 151.445 11.4042L150.307 16.7708C150.696 17.2181 151.182 17.5778 151.766 17.85C152.349 18.1028 152.991 18.2292 153.691 18.2292Z" fill="#525986"/>
<path d="M171.189 22.3417C169.711 22.3417 168.389 22.0208 167.222 21.3792C166.055 20.7181 165.131 19.8236 164.45 18.6958C163.769 17.5681 163.429 16.3042 163.429 14.9042C163.429 13.7375 163.653 12.6389 164.1 11.6083C164.567 10.5583 165.199 9.64444 165.996 8.86667C166.813 8.06944 167.747 7.44722 168.797 7C169.867 6.55278 170.995 6.32917 172.181 6.32917C173.659 6.32917 174.972 6.65972 176.12 7.32083C177.287 7.9625 178.211 8.84722 178.891 9.975C179.572 11.0833 179.912 12.3472 179.912 13.7667C179.912 14.9333 179.679 16.0319 179.212 17.0625C178.765 18.0931 178.133 19.0069 177.316 19.8042C176.519 20.6014 175.595 21.2236 174.544 21.6708C173.494 22.1181 172.376 22.3417 171.189 22.3417ZM171.394 18.2583C171.938 18.2583 172.444 18.1514 172.911 17.9375C173.397 17.7042 173.825 17.3931 174.194 17.0042C174.564 16.6153 174.846 16.1583 175.04 15.6333C175.254 15.1083 175.361 14.5542 175.361 13.9708C175.361 13.2708 175.215 12.6583 174.924 12.1333C174.632 11.5889 174.223 11.1708 173.698 10.8792C173.193 10.5681 172.609 10.4125 171.948 10.4125C171.403 10.4125 170.888 10.5292 170.402 10.7625C169.935 10.9764 169.517 11.2778 169.147 11.6667C168.778 12.0556 168.486 12.5125 168.272 13.0375C168.077 13.5625 167.98 14.1167 167.98 14.7C167.98 15.3806 168.126 15.9931 168.418 16.5375C168.709 17.0819 169.108 17.5097 169.614 17.8208C170.139 18.1125 170.732 18.2583 171.394 18.2583Z" fill="#525986"/>
<path d="M179.889 22.05L183.156 6.62083H187.795L187.503 7.99167C188.067 7.44722 188.68 7.03889 189.341 6.76667C190.022 6.475 190.732 6.32917 191.471 6.32917C192.385 6.32917 193.056 6.49444 193.484 6.825L192.638 10.9083C192.443 10.7528 192.103 10.6167 191.617 10.5C191.15 10.3833 190.703 10.325 190.275 10.325C188.836 10.325 187.62 10.9083 186.628 12.075L184.527 22.05H179.889Z" fill="#525986"/>
<path d="M199.804 22.225C197.956 22.225 196.624 21.7875 195.807 20.9125C195.009 20.0181 194.786 18.7444 195.136 17.0917L196.536 10.5583H193.473L194.29 6.62083H197.353L198.199 2.65417L203.042 1.63333L201.963 6.62083H206.193L205.376 10.5583H201.146L199.891 16.3625C199.755 17.0625 199.823 17.5681 200.095 17.8792C200.387 18.1903 200.922 18.3458 201.7 18.3458C202.031 18.3458 202.342 18.3264 202.634 18.2875C202.945 18.2486 203.275 18.1903 203.626 18.1125L202.809 21.9042C202.439 21.9819 201.963 22.05 201.379 22.1083C200.815 22.1861 200.29 22.225 199.804 22.225Z" fill="#525986"/>
<path d="M207.645 22.05L220.102 1.63333H225.733L229.584 22.05H224.508L223.691 17.1208H215.872L213.013 22.05H207.645ZM218.177 13.125H223.049L221.969 6.59167L218.177 13.125Z" fill="#525986"/>
<path d="M237.228 22.2542C235.944 22.2542 234.777 21.9431 233.727 21.3208C232.696 20.6792 231.87 19.8139 231.247 18.725C230.644 17.6361 230.343 16.4208 230.343 15.0792C230.343 13.8736 230.566 12.7458 231.014 11.6958C231.461 10.6458 232.074 9.73194 232.852 8.95417C233.649 8.15694 234.573 7.53472 235.623 7.0875C236.674 6.64028 237.792 6.41667 238.978 6.41667C239.834 6.41667 240.641 6.54306 241.4 6.79583C242.158 7.02917 242.829 7.36944 243.413 7.81667L244.726 1.63333L249.569 0.612501L245.018 22.05H240.437L240.583 21.4083C239.513 21.9722 238.395 22.2542 237.228 22.2542ZM238.512 18.2583C239.076 18.2583 239.591 18.1806 240.058 18.025C240.544 17.85 240.991 17.5972 241.4 17.2667L242.567 11.7833C242.178 11.375 241.682 11.0542 241.079 10.8208C240.476 10.5681 239.834 10.4417 239.153 10.4417C238.356 10.4417 237.636 10.6361 236.995 11.025C236.353 11.3944 235.837 11.9 235.448 12.5417C235.079 13.1639 234.894 13.8736 234.894 14.6708C234.894 15.3514 235.05 15.9639 235.361 16.5083C235.672 17.0528 236.1 17.4806 236.644 17.7917C237.209 18.1028 237.831 18.2583 238.512 18.2583Z" fill="#525986"/>
<path d="M252.275 22.05L249.066 6.62083H253.996L255.718 16.0708L261.465 6.62083H266.512L256.768 22.05H252.275Z" fill="#525986"/>
<path d="M264.025 22.05L267.293 6.62083H271.931L268.664 22.05H264.025ZM270.181 5.19167C269.539 5.19167 268.995 4.97778 268.547 4.55C268.119 4.10278 267.905 3.55833 267.905 2.91667C267.905 2.39167 268.032 1.90556 268.285 1.45833C268.557 1.01111 268.907 0.661111 269.335 0.408333C269.782 0.136111 270.259 0 270.764 0C271.406 0 271.941 0.223611 272.369 0.670833C272.816 1.09861 273.04 1.63333 273.04 2.275C273.04 2.8 272.904 3.28611 272.632 3.73333C272.379 4.16111 272.029 4.51111 271.581 4.78333C271.153 5.05556 270.687 5.19167 270.181 5.19167Z" fill="#525986"/>
<path d="M278.112 22.3708C276.633 22.3708 275.223 22.1472 273.881 21.7C272.539 21.2333 271.421 20.6111 270.526 19.8333L273.094 16.8C273.969 17.4806 274.815 17.9958 275.632 18.3458C276.468 18.6764 277.304 18.8417 278.141 18.8417C278.822 18.8417 279.366 18.725 279.775 18.4917C280.183 18.2583 280.387 17.9569 280.387 17.5875C280.387 17.3153 280.271 17.0917 280.037 16.9167C279.804 16.7417 279.463 16.6056 279.016 16.5083L276.069 15.8667C274.805 15.5944 273.833 15.0889 273.152 14.35C272.471 13.5917 272.131 12.6583 272.131 11.55C272.131 10.4806 272.384 9.56667 272.889 8.80833C273.395 8.03056 274.115 7.4375 275.048 7.02917C276.001 6.60139 277.129 6.3875 278.433 6.3875C279.716 6.3875 280.951 6.59167 282.138 7C283.324 7.40833 284.365 7.98194 285.259 8.72083L282.721 11.5792C281.943 11.0153 281.165 10.5875 280.387 10.2958C279.609 10.0042 278.851 9.85833 278.112 9.85833C277.528 9.85833 277.071 9.95555 276.74 10.15C276.41 10.3444 276.244 10.6264 276.244 10.9958C276.244 11.2875 276.361 11.5306 276.595 11.725C276.847 11.9 277.256 12.0458 277.82 12.1625L280.766 12.8042C282.05 13.0764 283.042 13.5819 283.742 14.3208C284.462 15.0597 284.822 15.9542 284.822 17.0042C284.822 18.0153 284.53 18.9292 283.947 19.7458C283.363 20.5625 282.566 21.2042 281.554 21.6708C280.543 22.1375 279.395 22.3708 278.112 22.3708Z" fill="#525986"/>
<path d="M293.605 22.3417C292.126 22.3417 290.804 22.0208 289.637 21.3792C288.47 20.7181 287.546 19.8236 286.865 18.6958C286.185 17.5681 285.844 16.3042 285.844 14.9042C285.844 13.7375 286.068 12.6389 286.515 11.6083C286.982 10.5583 287.614 9.64444 288.412 8.86667C289.228 8.06944 290.162 7.44722 291.212 7C292.282 6.55278 293.41 6.32917 294.597 6.32917C296.075 6.32917 297.388 6.65972 298.535 7.32083C299.702 7.9625 300.626 8.84722 301.307 9.975C301.987 11.0833 302.328 12.3472 302.328 13.7667C302.328 14.9333 302.094 16.0319 301.628 17.0625C301.18 18.0931 300.548 19.0069 299.731 19.8042C298.934 20.6014 298.01 21.2236 296.96 21.6708C295.909 22.1181 294.791 22.3417 293.605 22.3417ZM293.809 18.2583C294.353 18.2583 294.859 18.1514 295.326 17.9375C295.812 17.7042 296.24 17.3931 296.61 17.0042C296.979 16.6153 297.261 16.1583 297.456 15.6333C297.67 15.1083 297.777 14.5542 297.777 13.9708C297.777 13.2708 297.631 12.6583 297.339 12.1333C297.047 11.5889 296.639 11.1708 296.114 10.8792C295.608 10.5681 295.024 10.4125 294.363 10.4125C293.819 10.4125 293.303 10.5292 292.817 10.7625C292.35 10.9764 291.932 11.2778 291.562 11.6667C291.193 12.0556 290.901 12.5125 290.687 13.0375C290.493 13.5625 290.395 14.1167 290.395 14.7C290.395 15.3806 290.541 15.9931 290.833 16.5375C291.125 17.0819 291.524 17.5097 292.029 17.8208C292.554 18.1125 293.148 18.2583 293.809 18.2583Z" fill="#525986"/>
<path d="M302.304 22.05L305.572 6.62083H310.21L309.919 7.99167C310.483 7.44722 311.095 7.03889 311.757 6.76667C312.437 6.475 313.147 6.32917 313.886 6.32917C314.8 6.32917 315.472 6.49444 315.899 6.825L315.053 10.9083C314.859 10.7528 314.518 10.6167 314.032 10.5C313.565 10.3833 313.118 10.325 312.69 10.325C311.251 10.325 310.035 10.9083 309.043 12.075L306.943 22.05H302.304Z" fill="#525986"/>
<path d="M6.29656 8.68242L5.14075 14.2694C5.39193 16.0307 7.17097 17.9421 10.1899 17.9508C10.7903 17.9491 11.3886 17.8783 11.9736 17.7397C11.697 19.0469 11.2475 21.2624 11.036 22.4059C10.5815 22.5083 10.1186 22.5663 9.65351 22.5792C4.79891 22.5792 0.567549 19.7451 0.000976562 15.23L1.6667 7.0373C3.55717 3.64831 7.62329 1.13077 12.2239 1.13077C15.8197 1.13077 18.6356 2.52219 20.7017 5.4009L16.6932 8.31834C15.7801 6.99567 14.2192 5.75916 11.6885 5.75916C9.1757 5.75916 7.11432 7.17964 6.29656 8.68242Z" fill="#161160"/>
<path fill-rule="evenodd" clip-rule="evenodd" d="M54.7246 20.5867L58.5797 1.63514L90.7865 1.63708L89.8603 6.26757H83.602L80.375 22.0743H75.5195L78.7474 6.26757H62.4809L61.8349 9.48031H71.7462L70.821 13.9964H60.9087L60.2355 17.4409H70.5633L69.609 22.0723H49.9716L49.4385 18.5115H40.6818L38.6894 22.0723H30.9859L28.104 14.6674H24.9738L23.4638 22.0723H18.6092L19.5137 17.6193L13.7029 21.8687L15.0795 15.1329H7.73414L14.1091 10.4704H20.9674L22.7623 1.63708H32.3333C35.5602 1.63708 38.3105 4.15452 38.6753 6.55752L37.8187 10.7739C36.8644 12.3653 35.2048 13.655 33.0714 14.2912L35.0769 19.167L45.2007 1.63514H51.4845L54.7246 20.5867ZM25.8285 10.4685H30.6022C31.8942 10.4685 32.7667 9.99039 33.2754 9.20684L33.5424 7.65526C33.2622 6.84456 32.1922 6.09205 30.8758 6.09205H26.7227L25.8285 10.4685ZM47.5298 6.17933L43.1519 14.0235H48.7371L47.5298 6.17933Z" fill="#161160"/>
</svg>
