<svg width="1016" height="1016" viewBox="0 0 1016 1016" fill="none" xmlns="http://www.w3.org/2000/svg">
<rect width="1016" height="1016" rx="32" fill="#F3F3FC"/>
<path d="M502.922 638C450.153 638 404.158 606.287 398 555.764L417.102 464.092C440.498 420.916 486.588 399.349 533.077 398C585.846 398 631.841 429.713 638 480.236L618.897 571.908C595.489 615.105 549.42 636.622 502.922 638Z" fill="#D0CEF2"/>
<g clip-path="url(#clip0_105_83)">
<path fill-rule="evenodd" clip-rule="evenodd" d="M482.774 608C526.096 606.673 567.906 586.871 589.414 548.401L607.864 459.858C601.719 416.602 561.729 388.057 513.222 388C469.919 389.298 428.086 409.144 406.586 447.599L388.136 536.142C394.281 579.397 434.269 607.942 482.774 608ZM378 535.764C384.159 586.287 430.153 618 482.922 618C529.42 616.622 575.49 595.105 598.898 551.908L618 460.236C611.841 409.713 565.847 378 513.078 378C466.588 379.349 420.498 400.916 397.102 444.092L378 535.764Z" fill="#2B21C1"/>
<path d="M546.304 519.019L521.177 456.809C520.131 454.436 518.41 452.483 516.172 451.13C513.934 449.777 511.252 449.068 508.373 449.068C505.493 449.068 502.51 449.777 499.697 451.13C496.884 452.483 494.333 454.436 492.277 456.809L440.704 519.019C438.88 521.228 437.608 523.747 437.017 526.322C436.426 528.898 436.535 531.439 437.336 533.691C438.275 536.226 439.968 538.331 442.24 539.792C444.512 541.253 447.283 542.016 450.268 542.005H526.968C529.926 542.036 533.001 541.302 535.885 539.876C538.769 538.451 541.359 536.385 543.394 533.887C545.194 531.611 546.413 529.033 546.924 526.419C547.436 523.805 547.222 521.25 546.304 519.019ZM535.673 529.045C534.857 530.055 533.809 530.885 532.641 531.446C531.473 532.006 530.23 532.275 529.047 532.224H452.347C451.143 532.275 450.014 532.006 449.085 531.446C448.155 530.885 447.459 530.055 447.073 529.045C446.792 528.301 446.741 527.458 446.923 526.599C447.106 525.741 447.516 524.898 448.113 524.154L499.746 461.895C500.626 461.003 501.671 460.28 502.801 459.782C503.93 459.285 505.113 459.026 506.256 459.026C507.399 459.026 508.472 459.285 509.39 459.782C510.308 460.28 511.046 461.003 511.546 461.895L536.673 524.105C536.971 524.85 537.035 525.7 536.859 526.568C536.683 527.436 536.274 528.291 535.673 529.045Z" fill="#2B21C1"/>
<path d="M492.777 522.442C495.538 522.442 498.242 520.253 498.816 517.552C499.39 514.85 497.617 512.661 494.856 512.661C492.094 512.661 489.39 514.85 488.816 517.552C488.242 520.253 490.015 522.442 492.777 522.442Z" fill="#2B21C1"/>
<path d="M502.133 478.426C500.806 478.426 499.425 478.941 498.293 479.858C497.16 480.775 496.369 482.019 496.093 483.316L491.935 502.879C491.659 504.176 491.921 505.42 492.664 506.338C493.407 507.255 494.569 507.77 495.895 507.77C497.221 507.77 498.603 507.255 499.735 506.338C500.868 505.42 501.659 504.176 501.935 502.879L506.093 483.316C506.369 482.019 506.106 480.775 505.364 479.858C504.621 478.941 503.459 478.426 502.133 478.426Z" fill="#2B21C1"/>
</g>
<defs>
<clipPath id="clip0_105_83">
<rect width="240" height="240" fill="white" transform="translate(378 378)"/>
</clipPath>
</defs>
</svg>
